0
SECTION
2
HEADER
9
$ACADVER
1
AC1009
9
$INSUNITS
70
4
9
$MEASUREMENT
70
1
0
ENDSEC
0
SECTION
2
ENTITIES
0
LINE
8
BOARD_OUTLINE
10
0
20
0
30
0
11
120
21
0
31
0
0
LINE
8
BOARD_OUTLINE
10
120
20
0
30
0
11
120
21
90
31
0
0
LINE
8
BOARD_OUTLINE
10
120
20
90
30
0
11
0
21
90
31
0
0
LINE
8
BOARD_OUTLINE
10
0
20
90
30
0
11
0
21
0
31
0
0
CIRCLE
8
MOUNT_HOLES_M3
10
5
20
5
30
0
40
1.6
0
CIRCLE
8
MOUNT_HOLES_M3
10
115
20
5
30
0
40
1.6
0
CIRCLE
8
MOUNT_HOLES_M3
10
5
20
85
30
0
40
1.6
0
CIRCLE
8
MOUNT_HOLES_M3
10
115
20
85
30
0
40
1.6
0
CIRCLE
8
BUTTON_CENTERS
10
25
20
14
30
0
40
6
0
CIRCLE
8
BUTTON_CENTERS
10
48
20
14
30
0
40
6
0
CIRCLE
8
BUTTON_CENTERS
10
71
20
14
30
0
40
6
0
CIRCLE
8
BUTTON_CENTERS
10
94
20
14
30
0
40
6
0
CIRCLE
8
BUTTON_CENTERS
10
25
20
29
30
0
40
6
0
CIRCLE
8
BUTTON_CENTERS
10
48
20
29
30
0
40
6
0
CIRCLE
8
BUTTON_CENTERS
10
71
20
29
30
0
40
6
0
CIRCLE
8
BUTTON_CENTERS
10
94
20
29
30
0
40
6
0
CIRCLE
8
BUTTON_CENTERS
10
25
20
44
30
0
40
6
0
CIRCLE
8
BUTTON_CENTERS
10
48
20
44
30
0
40
6
0
CIRCLE
8
BUTTON_CENTERS
10
71
20
44
30
0
40
6
0
CIRCLE
8
BUTTON_CENTERS
10
94
20
44
30
0
40
6
0
CIRCLE
8
BUTTON_CENTERS
10
25
20
59
30
0
40
6
0
CIRCLE
8
BUTTON_CENTERS
10
48
20
59
30
0
40
6
0
CIRCLE
8
BUTTON_CENTERS
10
71
20
59
30
0
40
6
0
CIRCLE
8
BUTTON_CENTERS
10
94
20
59
30
0
40
6
0
CIRCLE
8
BUTTON_CENTERS
10
25
20
74
30
0
40
6
0
CIRCLE
8
BUTTON_CENTERS
10
48
20
74
30
0
40
6
0
CIRCLE
8
BUTTON_CENTERS
10
71
20
74
30
0
40
6
0
CIRCLE
8
BUTTON_CENTERS
10
94
20
74
30
0
40
6
0
TEXT
8
BUTTON_NUMBERS
10
24
20
20
30
0
40
2
1
1
7
STANDARD
0
TEXT
8
BUTTON_NUMBERS
10
47
20
20
30
0
40
2
1
2
7
STANDARD
0
TEXT
8
BUTTON_NUMBERS
10
70
20
20
30
0
40
2
1
3
7
STANDARD
0
TEXT
8
BUTTON_NUMBERS
10
93
20
20
30
0
40
2
1
4
7
STANDARD
0
TEXT
8
BUTTON_NUMBERS
10
24
20
35
30
0
40
2
1
5
7
STANDARD
0
TEXT
8
BUTTON_NUMBERS
10
47
20
35
30
0
40
2
1
6
7
STANDARD
0
TEXT
8
BUTTON_NUMBERS
10
70
20
35
30
0
40
2
1
7
7
STANDARD
0
TEXT
8
BUTTON_NUMBERS
10
93
20
35
30
0
40
2
1
8
7
STANDARD
0
TEXT
8
BUTTON_NUMBERS
10
24
20
50
30
0
40
2
1
9
7
STANDARD
0
TEXT
8
BUTTON_NUMBERS
10
47
20
50
30
0
40
2
1
10
7
STANDARD
0
TEXT
8
BUTTON_NUMBERS
10
70
20
50
30
0
40
2
1
11
7
STANDARD
0
TEXT
8
BUTTON_NUMBERS
10
93
20
50
30
0
40
2
1
12
7
STANDARD
0
TEXT
8
BUTTON_NUMBERS
10
24
20
65
30
0
40
2
1
13
7
STANDARD
0
TEXT
8
BUTTON_NUMBERS
10
47
20
65
30
0
40
2
1
14
7
STANDARD
0
TEXT
8
BUTTON_NUMBERS
10
70
20
65
30
0
40
2
1
15
7
STANDARD
0
TEXT
8
BUTTON_NUMBERS
10
93
20
65
30
0
40
2
1
16
7
STANDARD
0
TEXT
8
BUTTON_NUMBERS
10
24
20
80
30
0
40
2
1
17
7
STANDARD
0
TEXT
8
BUTTON_NUMBERS
10
47
20
80
30
0
40
2
1
18
7
STANDARD
0
TEXT
8
BUTTON_NUMBERS
10
70
20
80
30
0
40
2
1
19
7
STANDARD
0
TEXT
8
BUTTON_NUMBERS
10
93
20
80
30
0
40
2
1
20
7
STANDARD
0
TEXT
8
ANNOTATION
10
18
20
22
30
0
40
2.5
1
1
7
STANDARD
0
TEXT
8
ANNOTATION
10
18
20
4
30
0
40
2
1
5
7
STANDARD
0
TEXT
8
ANNOTATION
10
108
20
44
30
0
40
2
1
J1 IDC 2X10
7
STANDARD
0
TEXT
8
ANNOTATION
10
5
20
88
30
0
40
2.5
1
BUTTON MATRIX REV1
7
STANDARD
0
TEXT
8
ANNOTATION
10
5
20
-5
30
0
40
2
1
120 x 90 mm - UNITS: mm - M3 CLEARANCE HOLES DIA 3.2 mm
7
STANDARD
0
ENDSEC
0
EOF
